<svg id="Layer_1" data-name="Layer 1" xmlns="http://www.w3.org/2000/svg" viewBox="0 0 80 80"><defs><style>.cls-1{fill:#b5b5b5;}.cls-2{fill:#fff;stroke:#bf6281;stroke-miterlimit:10;}.cls-3{fill:#fefefe;}.cls-4{fill:#bf6281;}.cls-5{fill:#acacad;}.cls-6{fill:#acabad;}.cls-7{fill:#acacae;}.cls-8{fill:#bf6382;}</style></defs><title>Artboard 1</title><polygon class="cls-1" points="41.07 78.16 73.4 71.23 8.74 71.23 41.07 78.16"/><path class="cls-2" d="M66.17,4.5H14.33a12,12,0,0,0-12,12V47.33a12,12,0,0,0,12,12H32.72l8.35,17.84,8.35-17.84H66.17a12,12,0,0,0,12-12V16.5A12,12,0,0,0,66.17,4.5Z"/><path class="cls-3" d="M17.69,40.89a13.43,13.43,0,0,1-.48-1.71c-.46-1.83-1-3.65-1.44-5.48,0-.17-.13-.22-.3-.22q-2.7,0-5.4,0c-.25,0-.34.06-.33.33,0,2,0,4.06,0,6.09q0,4.88,0,9.75c0,.24.06.33.31.32s.7,0,1,0,.38,0,.38-.37q0-7,0-14c0-.23.05-.31.29-.3.73,0,1.47,0,2.2,0,.42,0,.42,0,.54.42l.09.29c.26.85.4,1.73.63,2.59l2.08,7.93s0,.12.06.12a3,3,0,0,0,.56,0c.14,0,.11-.18.14-.28.52-2,1.1-4.07,1.59-6.12.37-1.58.83-3.14,1.24-4.72,0-.18.11-.25.3-.25.8,0,1.6,0,2.41,0,.25,0,.33.05.33.32q0,6.11,0,12.21c0,.65,0,1.3,0,1.95,0,.18.06.23.23.23.4,0,.8,0,1.2,0,.2,0,.26,0,.26-.26,0-1.15,0-2.3,0-3.46a.45.45,0,0,1,0-.24c.06,0,.07.05.09.09A8.23,8.23,0,0,0,27.22,48a10.36,10.36,0,0,0,1.88,1.32,8.07,8.07,0,0,0,5,.83,8.78,8.78,0,0,0,2.66-.89,10.26,10.26,0,0,0,2.37-1.83c.56-.53,1.08-1.12,1.62-1.67.31-.31.64-.61,1-.91.71-.65,1.31-1.41,2-2s1.18-1.21,1.76-1.81,1.1-1,1.62-1.6a3.43,3.43,0,0,1,2.26-1.19,3.83,3.83,0,0,1,2.76.6A3.78,3.78,0,0,1,50,45.68a5.42,5.42,0,0,1-1.28-.2,2.57,2.57,0,0,1-1.37-.79c-.72-.8-1.52-1.51-2.29-2.27-.35.44-.81.76-1.19,1.16-.12.12-.12.19,0,.3s.4.39.6.6a19.21,19.21,0,0,0,2.11,2,5.4,5.4,0,0,0,4.22,1.08,5.61,5.61,0,0,0,3.76-2.28,5.45,5.45,0,0,0,1.08-4.13A5.52,5.52,0,0,0,54.09,38a5.65,5.65,0,0,0-8-.23c-.5.46-1,.93-1.45,1.44-.68.75-1.45,1.42-2.15,2.15S41,42.88,40.2,43.65s-1.3,1.31-2,1.94c-.43.41-.81.87-1.27,1.25a5.17,5.17,0,0,1-1.55,1,7,7,0,0,1-3.3.44,7.65,7.65,0,0,1-2-.55,6.44,6.44,0,0,1-2.72-2.44,5.14,5.14,0,0,1-.89-2.49,8.46,8.46,0,0,1,.05-2.16,5.61,5.61,0,0,1,1.29-2.68,8.41,8.41,0,0,1,1.24-1.21,5.42,5.42,0,0,1,2.28-1,7.22,7.22,0,0,1,.93-.15,7.59,7.59,0,0,1,2.65.29,5.53,5.53,0,0,1,2.23,1.34c.77.72,1.51,1.48,2.25,2.23.15.15.23.14.37,0,.33-.36.68-.72,1-1.07.08-.08.08-.13,0-.2a5.2,5.2,0,0,1-.4-.4A17.84,17.84,0,0,0,37.9,35.3a8.08,8.08,0,0,0-6.24-1.63,7.48,7.48,0,0,0-3,1.08c-.57.36-1.09.78-1.62,1.19a4.6,4.6,0,0,0-.78.94c-.23.3-.43.61-.67,1,0-1.38,0-2.72,0-4.06,0-.23-.07-.28-.29-.28H20.1c-.46,0-.46,0-.57.44l-1.42,5.4Zm39.69-2.77a10.84,10.84,0,0,0-.8-1.29,4.91,4.91,0,0,0-1.11-1.15,10.92,10.92,0,0,0-1.67-1.16,8.09,8.09,0,0,0-3.87-.93,8.35,8.35,0,0,0-2.5.39,9.14,9.14,0,0,0-3.65,2.36l-1.49,1.54c-.21.22-.46.41-.67.63-.44.45-.9.88-1.32,1.36s-.69.66-1,1c-.68.66-1.31,1.37-2,2a19.37,19.37,0,0,0-1.4,1.38,3.69,3.69,0,0,1-2.07,1.3,3.83,3.83,0,0,1-4.69-2.85,3.39,3.39,0,0,1,.28-2.4,3.89,3.89,0,0,1,2.27-2,4.48,4.48,0,0,1,1.89-.1,3.28,3.28,0,0,1,2.12,1.12c.64.69,1.35,1.3,2,2,.09.09.16.1.23,0A10,10,0,0,1,39,40.21c.1-.1.08-.16,0-.25-.8-.79-1.54-1.64-2.39-2.38a5.34,5.34,0,0,0-1.06-.74,5.7,5.7,0,0,0-6.22,9.49,5.48,5.48,0,0,0,4.23,1.24,5.35,5.35,0,0,0,2.92-1.26c.63-.54,1.23-1.13,1.8-1.73,1.21-1.26,2.46-2.48,3.7-3.71.2-.2.45-.37.63-.59.5-.58,1.08-1.09,1.6-1.65.25-.27.57-.47.8-.76A6.41,6.41,0,0,1,47.56,36a6.21,6.21,0,0,1,2.13-.43,6.92,6.92,0,0,1,2.67.41,6.25,6.25,0,0,1,2.95,2.39,6.09,6.09,0,0,1,1.07,4.42,6.58,6.58,0,0,1-2.26,4.05,5.56,5.56,0,0,1-2.54,1.28,6.66,6.66,0,0,1-5-.74,9,9,0,0,1-1.67-1.45c-.48-.52-1-1-1.53-1.51-.14-.15-.21-.12-.33,0a8.85,8.85,0,0,1-1,1c-.14.1-.12.15,0,.25s.45.42.65.65a14.2,14.2,0,0,0,2.5,2.33A8,8,0,0,0,51,50.18a7.64,7.64,0,0,0,3.43-1.27,8.61,8.61,0,0,0,2-1.73,10.17,10.17,0,0,0,.89-1.37l.08.13a8.4,8.4,0,0,0,1.68,2.15,9,9,0,0,0,2.1,1.43,6.72,6.72,0,0,0,2.5.73c.58.05,1.18,0,1.77,0a6.33,6.33,0,0,0,2.69-.67,8.14,8.14,0,0,0,2.38-1.64c.43-.44.87-.87,1.32-1.29.11-.1.11-.17,0-.27-.37-.35-.68-.76-1.07-1.09-.11-.09-.16-.1-.26,0-.37.38-.73.77-1.12,1.12A6.22,6.22,0,0,1,67,48a7,7,0,0,1-2.67.39A6.17,6.17,0,0,1,61,47.19a6.44,6.44,0,0,1-2.19-2.72,6.19,6.19,0,0,1-.3-4.08A5.75,5.75,0,0,1,59.75,38a9.17,9.17,0,0,1,1.6-1.42,5.17,5.17,0,0,1,1.92-.77,7,7,0,0,1,2.58-.07,5.94,5.94,0,0,1,1.95.63,13.51,13.51,0,0,1,2.59,2.22c.33.32.65.65,1,1,.1.11.16.07.24,0l.85-.85c.12-.12.32-.24.33-.37s-.21-.26-.34-.38a27.7,27.7,0,0,0-2.74-2.6,8.18,8.18,0,0,0-6-1.6,8.29,8.29,0,0,0-4,1.65A5.12,5.12,0,0,0,59,36,9.5,9.5,0,0,0,57.38,38.12ZM14.23,44.77h0c.07.27.16.55.22.82.34,1.39.68,2.78,1,4.17,0,.19.12.24.31.24,1.23,0,2.46,0,3.69,0a.28.28,0,0,0,.33-.26q.43-1.74.88-3.47c.14-.55.28-1.09.43-1.64h0v.2c0,1.63,0,3.26,0,4.89,0,.21.06.28.27.27s.68,0,1,0,.4.06.4-.39q0-5.91,0-11.83c0-.38,0-.75,0-1.13,0-.16,0-.23-.21-.22a6.11,6.11,0,0,1-.79,0c-.23,0-.33.07-.38.29-.1.45-.23.88-.35,1.33C20.6,40,20,41.9,19.57,43.87c-.14.61-.31,1.21-.47,1.82-.2.77-.41,1.54-.62,2.31a.24.24,0,0,1-.28.21c-.36,0-.72,0-1.08,0-.13,0-.21,0-.25-.17-.65-2.52-1.36-5-1.94-7.55-.3-1.33-.68-2.64-1-4a.19.19,0,0,0-.22-.16c-.31,0-.61,0-.92,0s-.28.06-.28.28c0,.83,0,1.66,0,2.48q0,5.27,0,10.55c0,.25.07.33.32.31s.72,0,1.07,0,.35,0,.35-.35Q14.23,47.2,14.23,44.77Zm54.64-1.63-.4.41a11.36,11.36,0,0,1-1.39,1.38,3.78,3.78,0,0,1-2.52.7,3.57,3.57,0,0,1-2.79-1.43A3.73,3.73,0,0,1,61,41.15a3.46,3.46,0,0,1,1.05-2,3.76,3.76,0,0,1,3.17-1,3.55,3.55,0,0,1,2.22,1.07c.66.67,1.3,1.35,2,2,.16.15.24.15.39,0,.33-.35.67-.68,1-1,.09-.09.1-.15,0-.25-.71-.78-1.46-1.52-2.24-2.23a5.4,5.4,0,0,0-.63-.52,5.48,5.48,0,0,0-4.37-.88,5.74,5.74,0,0,0-4.17,3.47A5.13,5.13,0,0,0,59.15,43a5.36,5.36,0,0,0,1.43,2.73,7.54,7.54,0,0,0,.86.79,5.58,5.58,0,0,0,4.25,1,5,5,0,0,0,2.36-1A21.56,21.56,0,0,0,70,44.79c.11-.11.13-.19,0-.32C69.63,44,69.26,43.59,68.87,43.14Z"/><path class="cls-4" d="M13.72,14.22c.34.08.7.1,1,.18a6.11,6.11,0,0,1,3.31,2.14,5.3,5.3,0,0,1,1.07,2.24c0,.16,0,.23-.16.25a25.78,25.78,0,0,0-2.81.63c-.2,0-.2-.06-.24-.18a3.3,3.3,0,0,0-2.31-2.35,3.67,3.67,0,0,0-3.55.77,4,4,0,0,0-1.27,2.28A10.26,10.26,0,0,0,9,25.63a3.6,3.6,0,0,0,5,2.16,3.43,3.43,0,0,0,1.39-1.29,5.17,5.17,0,0,0,.69-1.67c0-.15.08-.17.22-.12l2.68.84c.21.06.26.15.2.38a6.7,6.7,0,0,1-.92,2.12,6,6,0,0,1-3.3,2.53,8.09,8.09,0,0,1-4.83,0,6.46,6.46,0,0,1-2.45-1.44A7.39,7.39,0,0,1,5.29,24.4c-.1-.88,0-1.79,0-2.69a7.14,7.14,0,0,1,.37-2.44,7.39,7.39,0,0,1,1.3-2.48,7,7,0,0,1,4.29-2.52c.16,0,.34,0,.5-.06Z"/><path class="cls-5" d="M17.69,40.89l.41-1.56,1.42-5.4c.11-.44.11-.44.57-.44h5.22c.22,0,.29,0,.29.28,0,1.34,0,2.68,0,4.06.24-.34.44-.65.67-1a4.6,4.6,0,0,1,.78-.94c.53-.41,1.05-.83,1.62-1.19a7.48,7.48,0,0,1,3-1.08A8.08,8.08,0,0,1,37.9,35.3a17.84,17.84,0,0,1,2.51,2.43,5.2,5.2,0,0,0,.4.4c.08.07.08.12,0,.2-.35.35-.69.71-1,1.07-.13.15-.22.16-.37,0-.74-.75-1.47-1.51-2.25-2.23a5.53,5.53,0,0,0-2.23-1.34,7.59,7.59,0,0,0-2.65-.29,7.22,7.22,0,0,0-.93.15,5.42,5.42,0,0,0-2.28,1,8.41,8.41,0,0,0-1.24,1.21,5.61,5.61,0,0,0-1.29,2.68,8.46,8.46,0,0,0-.05,2.16,5.14,5.14,0,0,0,.89,2.49,6.44,6.44,0,0,0,2.72,2.44,7.65,7.65,0,0,0,2,.55,7,7,0,0,0,3.3-.44,5.17,5.17,0,0,0,1.55-1c.46-.38.84-.85,1.27-1.25.67-.63,1.31-1.29,2-1.94s1.57-1.54,2.32-2.33,1.47-1.4,2.15-2.15c.46-.5.95-1,1.45-1.44a5.73,5.73,0,0,1,9.54,3.42,5.45,5.45,0,0,1-1.08,4.13,5.61,5.61,0,0,1-3.76,2.28,5.4,5.4,0,0,1-4.22-1.08,19.21,19.21,0,0,1-2.11-2c-.2-.2-.39-.41-.6-.6s-.12-.18,0-.3c.38-.4.84-.72,1.19-1.16.77.75,1.57,1.47,2.29,2.27a2.57,2.57,0,0,0,1.37.79,5.42,5.42,0,0,0,1.28.2,3.78,3.78,0,0,0,2.13-6.9,3.83,3.83,0,0,0-2.76-.6,3.43,3.43,0,0,0-2.26,1.19c-.52.55-1.1,1.05-1.62,1.6s-1.13,1.26-1.76,1.81-1.33,1.39-2,2c-.32.3-.65.6-1,.91-.55.55-1.06,1.13-1.62,1.67a10.26,10.26,0,0,1-2.37,1.83,8.78,8.78,0,0,1-2.66.89,8.07,8.07,0,0,1-5-.83A10.36,10.36,0,0,1,27.22,48a8.23,8.23,0,0,1-1.51-1.88s0-.08-.09-.09a.45.45,0,0,0,0,.24c0,1.15,0,2.3,0,3.46,0,.21-.06.26-.26.26-.4,0-.8,0-1.2,0-.18,0-.24,0-.23-.23,0-.65,0-1.3,0-1.95q0-6.11,0-12.21c0-.27-.07-.32-.33-.32-.8,0-1.6,0-2.41,0-.19,0-.26.06-.3.25-.41,1.57-.86,3.14-1.24,4.72-.48,2.05-1.07,4.08-1.59,6.12,0,.1,0,.26-.14.28a3,3,0,0,1-.56,0c-.06,0-.05-.08-.06-.12l-2.08-7.93c-.23-.86-.37-1.74-.63-2.59l-.09-.29c-.12-.42-.12-.42-.54-.42-.73,0-1.47,0-2.2,0-.24,0-.29.07-.29.3q0,7,0,14c0,.37,0,.37-.38.37s-.7,0-1,0-.31-.08-.31-.32q0-4.88,0-9.75c0-2,0-4.06,0-6.09,0-.27.08-.33.33-.33q2.7,0,5.4,0c.18,0,.26,0,.3.22.48,1.83,1,3.65,1.44,5.48A13.43,13.43,0,0,0,17.69,40.89Z"/><path class="cls-6" d="M57.38,38.12A9.5,9.5,0,0,1,59,36a5.12,5.12,0,0,1,.76-.6,8.29,8.29,0,0,1,4-1.65,8.18,8.18,0,0,1,6,1.6,27.7,27.7,0,0,1,2.74,2.6c.13.12.35.23.34.38s-.21.25-.33.37l-.85.85c-.08.08-.14.13-.24,0-.31-.34-.63-.68-1-1a13.51,13.51,0,0,0-2.59-2.22,5.94,5.94,0,0,0-1.95-.63,7,7,0,0,0-2.58.07,5.17,5.17,0,0,0-1.92.77A9.17,9.17,0,0,0,59.75,38a5.75,5.75,0,0,0-1.22,2.43,6.19,6.19,0,0,0,.3,4.08A6.44,6.44,0,0,0,61,47.19a6.17,6.17,0,0,0,3.34,1.16A7,7,0,0,0,67,48a6.22,6.22,0,0,0,2.37-1.55c.39-.35.75-.74,1.12-1.12.1-.1.15-.1.26,0,.39.33.7.74,1.07,1.09.11.1.1.17,0,.27-.45.42-.89.85-1.32,1.29a8.14,8.14,0,0,1-2.38,1.64,6.33,6.33,0,0,1-2.69.67c-.59,0-1.18,0-1.77,0a6.72,6.72,0,0,1-2.5-.73,9,9,0,0,1-2.1-1.43,8.4,8.4,0,0,1-1.68-2.15l-.08-.13a10.17,10.17,0,0,1-.89,1.37,8.61,8.61,0,0,1-2,1.73A7.64,7.64,0,0,1,51,50.18a8,8,0,0,1-5.83-1.49,14.2,14.2,0,0,1-2.5-2.33c-.2-.23-.43-.44-.65-.65s-.12-.15,0-.25a8.85,8.85,0,0,0,1-1c.12-.13.19-.16.33,0,.49.52,1,1,1.53,1.51a9,9,0,0,0,1.67,1.45,6.66,6.66,0,0,0,5,.74,5.56,5.56,0,0,0,2.54-1.28,6.58,6.58,0,0,0,2.26-4.05,6.09,6.09,0,0,0-1.07-4.42,6.25,6.25,0,0,0-2.95-2.39,6.92,6.92,0,0,0-2.67-.41,6.21,6.21,0,0,0-2.13.43A6.41,6.41,0,0,0,45,37.88c-.23.29-.55.48-.8.76-.52.56-1.1,1.07-1.6,1.65-.19.22-.43.39-.63.59-1.24,1.23-2.49,2.45-3.7,3.71-.58.6-1.17,1.18-1.8,1.73a5.35,5.35,0,0,1-2.92,1.26,5.48,5.48,0,0,1-4.23-1.24,5.6,5.6,0,0,1-.68-8.2,5.67,5.67,0,0,1,6.89-1.29,5.34,5.34,0,0,1,1.06.74c.85.74,1.59,1.59,2.39,2.38.09.09.11.15,0,.25a10,10,0,0,0-1.08,1.08c-.07.1-.14.09-.23,0-.65-.67-1.36-1.29-2-2a3.28,3.28,0,0,0-2.12-1.12,4.48,4.48,0,0,0-1.89.1,3.89,3.89,0,0,0-2.27,2,3.39,3.39,0,0,0-.28,2.4,3.83,3.83,0,0,0,4.69,2.85,3.69,3.69,0,0,0,2.07-1.3,19.37,19.37,0,0,1,1.4-1.38c.68-.65,1.32-1.36,2-2,.34-.33.72-.64,1-1s.88-.91,1.32-1.36c.21-.22.46-.41.67-.63l1.49-1.54A9.14,9.14,0,0,1,47.42,34a8.35,8.35,0,0,1,2.5-.39,8.09,8.09,0,0,1,3.87.93,10.92,10.92,0,0,1,1.67,1.16,4.91,4.91,0,0,1,1.11,1.15A10.84,10.84,0,0,1,57.38,38.12Z"/><path class="cls-4" d="M32.91,21.55q0,3.37,0,6.73c0,.33,0,.33-.34.33H29.83c-.2,0-.24-.06-.24-.25,0-1.5,0-3,0-4.51,0-.21,0-.27-.26-.27q-2.89,0-5.79,0c-.24,0-.28.07-.28.29,0,2.15,0,4.3,0,6.45,0,.33,0,.33-.34.33H20.2c-.2,0-.24-.06-.24-.25q0-6.75,0-13.49c0-.18,0-.25.24-.25q1.42,0,2.84,0c.19,0,.24.05.24.24,0,1.22,0,2.44,0,3.66,0,.21.06.27.27.27h5.79c.22,0,.27-.06.27-.27,0-1.94,0-3.87,0-5.81,0-.26.07-.31.31-.3.91,0,1.83,0,2.74,0,.21,0,.27.05.27.27C32.9,17,32.91,19.28,32.91,21.55Z"/><path class="cls-4" d="M47.45,19.79c0,1.67,0,3.34,0,5A10,10,0,0,1,47,27.75a4.26,4.26,0,0,1-2,2.38,5.93,5.93,0,0,1-2.52.77,11.22,11.22,0,0,1-4.08-.26,5.18,5.18,0,0,1-2.63-1.76,4.58,4.58,0,0,1-.9-2.32,21.85,21.85,0,0,1-.2-3.47c0-2,0-4.08,0-6.12,0-.22.05-.29.28-.28.9,0,1.81,0,2.71,0,.21,0,.27.05.27.27q0,3.21,0,6.43c0,.73,0,1.47.06,2.2A2.71,2.71,0,0,0,40,28a4.28,4.28,0,0,0,2.35,0,2.37,2.37,0,0,0,1.75-2.19c.07-.86.1-1.72.1-2.58q0-4.2,0-8.4c0-.38,0-.33.35-.33h2.53c.41,0,.36-.05.36.35q0,2.48,0,5Z"/><path class="cls-7" d="M14.23,44.77q0,2.43,0,4.86c0,.35,0,.35-.35.35s-.72,0-1.07,0-.32-.07-.32-.31q0-5.27,0-10.55c0-.83,0-1.66,0-2.48,0-.22.07-.28.28-.28s.61,0,.92,0a.19.19,0,0,1,.22.16c.34,1.32.72,2.63,1,4,.58,2.53,1.29,5,1.94,7.55,0,.16.11.18.25.17.36,0,.72,0,1.08,0a.24.24,0,0,0,.28-.21c.2-.77.41-1.54.62-2.31.16-.61.33-1.21.47-1.82.46-2,1-3.89,1.54-5.84.12-.44.24-.88.35-1.33.05-.22.15-.31.38-.29a6.11,6.11,0,0,0,.79,0c.17,0,.22.06.21.22,0,.38,0,.75,0,1.13q0,5.91,0,11.83c0,.45.06.38-.4.39s-.68,0-1,0-.27-.06-.27-.27c0-1.63,0-3.26,0-4.89v-.2h0c-.14.55-.29,1.09-.43,1.64q-.44,1.74-.88,3.47a.28.28,0,0,1-.33.26c-1.23,0-2.46,0-3.69,0-.19,0-.26-.05-.31-.24-.33-1.39-.66-2.78-1-4.17-.07-.28-.15-.55-.22-.82Z"/><path class="cls-8" d="M48.49,23.5c0-2.28,0-4.56,0-6.83,0-.24.07-.29.3-.29q1.33,0,2.66,0c.25,0,.31.07.31.31q0,5.44,0,10.88c0,.34,0,.34.35.34h7.47c.22,0,.29,0,.29.28,0,.75,0,1.5,0,2.25,0,.18-.05.23-.23.23H48.72c-.2,0-.24-.06-.24-.25Q48.5,27,48.49,23.5Z"/><path class="cls-6" d="M68.87,43.14c.39.46.76.9,1.14,1.34.11.13.1.2,0,.32A21.56,21.56,0,0,1,68,46.56a5,5,0,0,1-2.36,1,5.58,5.58,0,0,1-4.25-1,7.54,7.54,0,0,1-.86-.79A5.36,5.36,0,0,1,59.15,43a5.13,5.13,0,0,1,.32-3.21,5.74,5.74,0,0,1,4.17-3.47,5.48,5.48,0,0,1,4.37.88,5.4,5.4,0,0,1,.63.52c.78.71,1.53,1.45,2.24,2.23.09.1.09.16,0,.25-.34.33-.68.67-1,1-.14.15-.23.15-.39,0-.68-.64-1.33-1.32-2-2a3.55,3.55,0,0,0-2.22-1.07,3.76,3.76,0,0,0-3.17,1,3.46,3.46,0,0,0-1.05,2,3.73,3.73,0,0,0,.72,3.05,3.57,3.57,0,0,0,2.79,1.43,3.78,3.78,0,0,0,2.52-.7,11.36,11.36,0,0,0,1.39-1.38Z"/><path class="cls-4" d="M75.64,29.47c-.15-.36-.28-.73-.42-1.1-.61-1.57-1.13-3.17-1.72-4.75-.53-1.42-1.11-2.82-1.55-4.27-.22-.73-.53-1.44-.8-2.15-.37-1-.76-2-1.09-3h-.56a.11.11,0,0,1-.11,0c-.81,0-1.61.12-2.42.17a.36.36,0,0,0-.37.27c-.29.76-.6,1.52-.9,2.28s-.49,1.31-.72,2c-.34,1-.76,1.89-1.14,2.85-.61,1.57-1.21,3.14-1.82,4.72-.3.79-.62,1.57-.93,2.35l-.48,1.8h3.12a.19.19,0,0,0,.2-.15c.36-1.1.87-2.15,1.16-3.27a.33.33,0,0,1,.39-.29q3,0,5.91,0a.35.35,0,0,1,.4.3c.21.74.45,1.48.67,2.22a.25.25,0,0,0,.29.21h2.74C75.68,29.69,75.7,29.63,75.64,29.47Zm-5.24-5.25H66.33l-.12,0c.8-1.93,1.37-3.92,2.17-5.9l1.07,2.82c.37,1,.66,1.95,1.07,2.89C70.57,24.13,70.6,24.21,70.39,24.21Z"/></svg>